<svg width="141" height="116" viewBox="0 0 141 116" fill="none" xmlns="http://www.w3.org/2000/svg">
<g clip-path="url(#clip0_1_97)">
<path d="M26.728 4.22522V110.238" stroke="white" stroke-width="5" stroke-linecap="round"/>
<path d="M79.022 31.1125C79.022 47.1117 62.0619 60.6887 40.2857 60.6887C18.5095 60.6887 1.54944 47.1117 1.54944 31.1125C1.54944 15.1134 18.5095 1.53638 40.2857 1.53638C62.0619 1.53638 79.022 15.1134 79.022 31.1125Z" stroke="white" stroke-width="4"/>
<path d="M29.4396 62.2251L120.857 112.159" stroke="white" stroke-width="4" stroke-linecap="round"/>
<path d="M84.8688 92.0825C82.4997 90.8764 80.9696 89.1264 80.2794 86.8317C79.5953 84.5271 79.9214 82.0827 81.2594 79.4984L81.5414 78.9537C82.4308 77.2345 83.5526 75.8694 84.906 74.8582C86.2757 73.8417 87.7493 73.256 89.3266 73.1006C90.9194 72.9402 92.4108 73.2135 93.8006 73.9206C96.0729 75.0771 97.4543 76.7182 97.9462 78.8439C98.4382 80.9695 97.9679 83.4155 96.5362 86.1811L95.8978 87.4141L84.0569 81.3882C83.2156 83.1182 83.0002 84.756 83.4116 86.3009C83.8392 87.8412 84.796 88.9889 86.2827 89.7456C87.3379 90.2826 88.3419 90.5238 89.2956 90.47C90.2493 90.4155 91.1828 90.175 92.097 89.7502L93.1925 92.0886C90.5724 93.5751 87.7981 93.5728 84.8688 92.0825ZM92.5402 76.3553C91.3339 75.7415 90.0951 75.6641 88.823 76.1232C87.5571 76.5716 86.4206 77.531 85.4142 79.0021L94.1694 83.4585L94.2856 83.2342C94.979 81.6847 95.1719 80.3127 94.8659 79.1174C94.5645 77.912 93.789 76.991 92.5402 76.3553Z" fill="white"/>
<path d="M122.39 102.07C120.97 104.304 119.078 105.661 116.712 106.14C114.336 106.613 111.909 106.075 109.431 104.526L108.909 104.2C107.261 103.169 105.988 101.941 105.091 100.514C104.191 99.0725 103.733 97.5652 103.716 95.9935C103.695 94.4056 104.101 92.9567 104.934 91.6469C106.296 89.5044 108.066 88.2845 110.245 87.9864C112.423 87.6876 114.839 88.3674 117.492 90.026L118.674 90.765L111.576 101.929C113.24 102.913 114.867 103.27 116.455 103C118.039 102.713 119.277 101.87 120.168 100.468C120.801 99.4727 121.131 98.5025 121.161 97.556C121.19 96.6088 121.032 95.6655 120.685 94.7252L123.131 93.8494C124.393 96.5681 124.147 99.3083 122.39 102.07ZM107.268 93.1065C106.546 94.2435 106.359 95.4611 106.708 96.7571C107.046 98.0477 107.911 99.2545 109.3 100.378L114.548 92.1232L114.333 91.9888C112.837 91.1676 111.476 90.8557 110.249 91.0531C109.011 91.2444 108.018 91.9289 107.268 93.1065Z" fill="white"/>
</g>
<defs>
<clipPath id="clip0_1_97">
<rect width="141" height="116" fill="white"/>
</clipPath>
</defs>
</svg>
